HIERARCHY
ROOT hip
{
  OFFSET 181.538 78.9113 168.772
  CHANNELS 6 Xposition Yposition Zposition Zrotation Xrotation Yrotation
  JOINT abdomen
  {
    OFFSET 0 20.6881 -0.73152
    CHANNELS 3 Zrotation Xrotation Yrotation
    JOINT chest
    {
      OFFSET 0 11.7043 -0.48768
      CHANNELS 3 Zrotation Xrotation Yrotation
      JOINT neck
      {
        OFFSET 0 22.1894 -2.19456
        CHANNELS 3 Zrotation Xrotation Yrotation
        JOINT head
        {
          OFFSET -0.24384 7.07133 1.2192
          CHANNELS 3 Zrotation Xrotation Yrotation
          JOINT leftEye
          {
            OFFSET 4.14528 8.04674 8.04672
            CHANNELS 3 Zrotation Xrotation Yrotation
            End Site
            {
              OFFSET 1 0 0
            }
          }
          JOINT rightEye
          {
            OFFSET -3.6576 8.04674 8.04672
            CHANNELS 3 Zrotation Xrotation Yrotation
            End Site
            {
              OFFSET 1 0 0
            }
          }
        }
      }
      JOINT rCollar
      {
        OFFSET -2.68224 19.2634 -4.8768
        CHANNELS 3 Zrotation Xrotation Yrotation
        JOINT rShldr
        {
          OFFSET -8.77824 -1.95073 1.46304
          CHANNELS 3 Zrotation Xrotation Yrotation
          JOINT rForeArm
          {
            OFFSET -28.1742 -1.7115 0.48768
            CHANNELS 3 Zrotation Xrotation Yrotation
            JOINT rHand
            {
              OFFSET -22.5879 0.773209 7.07136
              CHANNELS 3 Zrotation Xrotation Yrotation
              JOINT rThumb1
              {
                OFFSET -1.2192 -0.487915 3.41376
                CHANNELS 3 Zrotation Xrotation Yrotation
                JOINT rThumb2
                {
                  OFFSET -3.37035 -0.52449 3.41376
                  CHANNELS 3 Zrotation Xrotation Yrotation
                  End Site
                  {
                    OFFSET -1.78271 -1.18214 1.43049
                  }
                }
              }
              JOINT rIndex1
              {
                OFFSET -7.75947 0.938293 5.60832
                CHANNELS 3 Zrotation Xrotation Yrotation
                JOINT rIndex2
                {
                  OFFSET -2.54057 -0.884171 1.56538
                  CHANNELS 3 Zrotation Xrotation Yrotation
                  End Site
                  {
                    OFFSET -1.62519 -0.234802 1.16502
                  }
                }
              }
              JOINT rMid1
              {
                OFFSET -8.24714 1.18213 3.41376
                CHANNELS 3 Zrotation Xrotation Yrotation
                JOINT rMid2
                {
                  OFFSET -3.10165 -0.590103 1.0647
                  CHANNELS 3 Zrotation Xrotation Yrotation
                  End Site
                  {
                    OFFSET -2.48547 -0.328903 0.83742
                  }
                }
              }
              JOINT rRing1
              {
                OFFSET -8.82822 0.546677 1.51678
                CHANNELS 3 Zrotation Xrotation Yrotation
                JOINT rRing2
                {
                  OFFSET -2.60934 -0.819778 -0.0198488
                  CHANNELS 3 Zrotation Xrotation Yrotation
                  End Site
                  {
                    OFFSET -2.33842 -0.294052 0.168128
                  }
                }
              }
              JOINT rPinky1
              {
                OFFSET -8.27202 -0.0477905 -0.4584
                CHANNELS 3 Zrotation Xrotation Yrotation
                JOINT rPinky2
                {
                  OFFSET -1.82734 -0.647385 -0.700984
                  CHANNELS 3 Zrotation Xrotation Yrotation
                  End Site
                  {
                    OFFSET -1.69225 -0.51767 -0.607171
                  }
                }
              }
            }
          }
        }
      }
      JOINT lCollar
      {
        OFFSET 2.68224 19.2634 -4.8768
        CHANNELS 3 Zrotation Xrotation Yrotation
        JOINT lShldr
        {
          OFFSET 8.77824 -1.95073 1.46304
          CHANNELS 3 Zrotation Xrotation Yrotation
          JOINT lForeArm
          {
            OFFSET 28.1742 -1.7115 0.48768
            CHANNELS 3 Zrotation Xrotation Yrotation
            JOINT lHand
            {
              OFFSET 22.5879 0.773209 7.07136
              CHANNELS 3 Zrotation Xrotation Yrotation
              JOINT lThumb1
              {
                OFFSET 1.2192 -0.487915 3.41376
                CHANNELS 3 Zrotation Xrotation Yrotation
                JOINT lThumb2
                {
                  OFFSET 3.37035 -0.52449 3.41376
                  CHANNELS 3 Zrotation Xrotation Yrotation
                  End Site
                  {
                    OFFSET 1.78271 -1.18214 1.43049
                  }
                }
              }
              JOINT lIndex1
              {
                OFFSET 7.75947 0.938293 5.60832
                CHANNELS 3 Zrotation Xrotation Yrotation
                JOINT lIndex2
                {
                  OFFSET 2.54057 -0.884171 1.56538
                  CHANNELS 3 Zrotation Xrotation Yrotation
                  End Site
                  {
                    OFFSET 1.62519 -0.234802 1.16502
                  }
                }
              }
              JOINT lMid1
              {
                OFFSET 8.24714 1.18213 3.41376
                CHANNELS 3 Zrotation Xrotation Yrotation
                JOINT lMid2
                {
                  OFFSET 3.10165 -0.590103 1.0647
                  CHANNELS 3 Zrotation Xrotation Yrotation
                  End Site
                  {
                    OFFSET 2.48547 -0.328903 0.83742
                  }
                }
              }
              JOINT lRing1
              {
                OFFSET 8.82822 0.546677 1.51678
                CHANNELS 3 Zrotation Xrotation Yrotation
                JOINT lRing2
                {
                  OFFSET 2.60934 -0.819778 -0.0198488
                  CHANNELS 3 Zrotation Xrotation Yrotation
                  End Site
                  {
                    OFFSET 2.33842 -0.294052 0.168128
                  }
                }
              }
              JOINT lPinky1
              {
                OFFSET 8.27202 -0.0477905 -0.4584
                CHANNELS 3 Zrotation Xrotation Yrotation
                JOINT lPinky2
                {
                  OFFSET 1.82734 -0.647385 -0.700984
                  CHANNELS 3 Zrotation Xrotation Yrotation
                  End Site
                  {
                    OFFSET 1.69225 -0.51767 -0.607171
                  }
                }
              }
            }
          }
        }
      }
    }
  }
  JOINT rButtock
  {
    OFFSET -8.77824 4.35084 1.2192
    CHANNELS 3 Zrotation Xrotation Yrotation
    JOINT rThigh
    {
      OFFSET 0 -1.70687 -2.19456
      CHANNELS 3 Zrotation Xrotation Yrotation
      JOINT rShin
      {
        OFFSET 0 -36.8199 0.73152
        CHANNELS 3 Zrotation Xrotation Yrotation
        JOINT rFoot
        {
          OFFSET 0.73152 -45.1104 -5.12064
          CHANNELS 3 Zrotation Xrotation Yrotation
          End Site
          {
            OFFSET -1.1221 -3.69964 12.103
          }
        }
      }
    }
  }
  JOINT lButtock
  {
    OFFSET 8.77824 4.35084 1.2192
    CHANNELS 3 Zrotation Xrotation Yrotation
    JOINT lThigh
    {
      OFFSET 0 -1.70687 -2.19456
      CHANNELS 3 Zrotation Xrotation Yrotation
      JOINT lShin
      {
        OFFSET 0 -36.8199 0.73152
        CHANNELS 3 Zrotation Xrotation Yrotation
        JOINT lFoot
        {
          OFFSET -0.73152 -45.1104 -5.12064
          CHANNELS 3 Zrotation Xrotation Yrotation
          End Site
          {
            OFFSET 1.1221 -3.69964 12.103
          }
        }
      }
    }
  }
}
MOTION
Frames:	4
Frame Time:	0.00833333
27.7377 78.1714 47.1018 6.69548 13.6141 54.6404 -15.5259 19.4715 11.7678 1.53841 1.56618 2.46971 -11.5737 17.2348 -9.15445 29.8846 -48.1939 -5.85085 -0 0 0 -0 0 0 4.29015e-013 1.23215e-012 -9.39456e-013 72.5126 3.92343 -1.518 -18.6239 -11.3733 35.4359 -0.00454088 -0.492233 -0.0690362 8.08756e-010 1.51357e-008 -5.15724e-009 1.40679e-009 2.62165e-008 -8.9377e-009 8.0876e-010 1.51356e-008 -5.15724e-009 7.73091 5.47488 0.417314 8.08756e-010 1.51357e-008 -5.15724e-009 2.90554 0.965183 0.102902 8.08761e-010 1.51356e-008 -5.15724e-009 10.2786 0.731801 0.0259123 8.08753e-010 1.51357e-008 -5.15724e-009 2.22167 -0.733487 -0.20892 4.28965e-013 1.23214e-012 -9.39683e-013 -69.1212 -5.60732 7.51398 28.4486 -36.5911 -77.8824 2.52395 -40.2524 6.84362 1.17312e-009 -2.24194e-009 -2.58095e-009 2.11178e-009 -3.80142e-009 -4.41365e-009 1.17311e-009 -2.24194e-009 -2.58094e-009 -7.73091 5.47488 -0.417314 1.17312e-009 -2.24193e-009 -2.58094e-009 -2.90554 0.965183 -0.102902 1.17311e-009 -2.24194e-009 -2.58094e-009 -10.2786 0.731801 -0.0259123 1.17312e-009 -2.24193e-009 -2.58095e-009 -2.22167 -0.733487 0.20892 -2.03217e-016 0 -3.88251e-019 -11.0474 -41.6262 -12.8007 -27.6915 87.8067 28.2868 -2.51921 -4.01252 -9.8401 2.03217e-016 0 3.88251e-019 -1.40602 -12.3574 7.73166 0.409146 48.2009 -1.2417 0.342885 -0.359142 -10.5752 
30.763 78.6614 49.2947 7.1829 13.9722 54.8068 -15.8642 19.1727 11.1596 1.85996 1.54806 2.30388 -11.6678 17.0132 -8.96809 29.5888 -47.4267 -5.75195 -0 0 0 -0 0 0 2.35497e-013 1.54591e-012 -8.50885e-013 72.5081 3.5486 -2.61239 -18.8861 -11.6722 36.0401 -0.0027799 -0.787095 -0.110592 1.27415e-009 1.17515e-008 -3.78183e-009 2.21077e-009 2.03547e-008 -6.5554e-009 1.27416e-009 1.17515e-008 -3.78183e-009 7.73091 5.47488 0.417314 1.27415e-009 1.17515e-008 -3.78184e-009 2.90554 0.965183 0.102902 1.27416e-009 1.17515e-008 -3.78184e-009 10.2786 0.731801 0.0259123 1.27415e-009 1.17515e-008 -3.78183e-009 2.22167 -0.733487 -0.20892 2.35436e-013 1.54592e-012 -8.51127e-013 -67.3137 -6.18179 8.64893 28.4434 -35.4138 -76.0063 2.22984 -38.3526 6.38912 1.29714e-009 -1.51056e-009 -1.10774e-009 2.27747e-009 -2.55701e-009 -1.87679e-009 1.29713e-009 -1.51056e-009 -1.10773e-009 -7.73091 5.47488 -0.417314 1.29714e-009 -1.51056e-009 -1.10774e-009 -2.90554 0.965183 -0.102902 1.29713e-009 -1.51056e-009 -1.10774e-009 -10.2786 0.731801 -0.0259123 1.29714e-009 -1.51056e-009 -1.10775e-009 -2.22167 -0.733487 0.20892 -2.03217e-016 0 -3.88251e-019 -13.2871 -42.4581 -14.6001 -11.4691 85.1867 12.143 -2.61617 -4.49824 -9.88798 2.03217e-016 0 3.88251e-019 -1.72716 -9.3117 7.55938 0.311055 46.2766 -1.32967 1.22045 3.7668 -11.3283 
33.7616 79.1769 51.529 7.51189 14.1567 54.9928 -15.871 18.7986 10.4962 2.06889 1.59466 2.14006 -11.868 16.8065 -8.72688 29.5466 -46.5723 -5.45137 -0 0 0 -0 0 0 7.16023e-014 1.7485e-012 -7.4415e-013 72.4436 3.48432 -3.54973 -19.1433 -11.9711 36.6388 -0.00187146 -1.23516 -0.173618 1.56579e-009 8.80135e-009 -2.68304e-009 2.71369e-009 1.52466e-008 -4.65241e-009 1.5658e-009 8.80134e-009 -2.68305e-009 7.73091 5.47488 0.417314 1.56579e-009 8.80135e-009 -2.68306e-009 2.90554 0.965183 0.102902 1.5658e-009 8.80135e-009 -2.68305e-009 10.2786 0.731801 0.0259123 1.56579e-009 8.80135e-009 -2.68305e-009 2.22167 -0.733487 -0.20892 7.15273e-014 1.74852e-012 -7.44399e-013 -65.5868 -6.67701 9.69915 28.3993 -34.2738 -74.1486 2.13232 -37.7109 6.23837 1.2886e-009 -1.05965e-009 -2.33847e-010 2.23397e-009 -1.79248e-009 -3.74248e-010 1.2886e-009 -1.05965e-009 -2.33834e-010 -7.73091 5.47488 -0.417314 1.28861e-009 -1.05964e-009 -2.33844e-010 -2.90554 0.965183 -0.102902 1.2886e-009 -1.05964e-009 -2.33843e-010 -10.2786 0.731801 -0.0259123 1.28861e-009 -1.05964e-009 -2.3385e-010 -2.22167 -0.733487 0.20892 -2.03217e-016 0 -3.88251e-019 -15.1327 -43.0397 -16.1945 -6.4938 82.118 7.23474 -2.66157 -4.90716 -9.79434 2.03217e-016 0 3.88251e-019 -1.88431 -6.29439 7.22208 0.22267 44.3107 -1.40579 1.99988 7.14416 -11.7697 
36.742 79.681 53.8033 7.64025 14.0884 55.2152 -15.4099 18.3462 9.73303 2.11438 1.75138 1.97279 -12.2766 16.6183 -8.37195 29.9537 -45.5541 -4.76765 -0 0 0 -0 0 0 -7.1758e-014 1.79832e-012 -5.79631e-013 72.3309 3.79291 -4.25101 -19.3699 -12.236 37.1829 -0.00421743 -1.87163 -0.263157 1.55788e-009 6.02018e-009 -1.84867e-009 2.69648e-009 1.04357e-008 -3.2081e-009 1.55788e-009 6.02017e-009 -1.84868e-009 7.73091 5.47488 0.417314 1.55788e-009 6.02017e-009 -1.84868e-009 2.90554 0.965183 0.102902 1.55789e-009 6.02017e-009 -1.84868e-009 10.2786 0.731801 0.0259123 1.55788e-009 6.02017e-009 -1.84867e-009 2.22167 -0.733487 -0.20892 -7.18563e-014 1.79834e-012 -5.79872e-013 -63.9188 -7.01608 10.6229 28.3384 -33.1538 -72.1935 2.28348 -38.8321 6.49058 1.04881e-009 -1.08826e-009 -3.14216e-010 1.82315e-009 -1.85463e-009 -5.19499e-010 1.04881e-009 -1.08826e-009 -3.14204e-010 -7.73091 5.47488 -0.417314 1.04881e-009 -1.08826e-009 -3.14214e-010 -2.90554 0.965183 -0.102902 1.04881e-009 -1.08826e-009 -3.14213e-010 -10.2786 0.731801 -0.0259123 1.04881e-009 -1.08826e-009 -3.14221e-010 -2.22167 -0.733487 0.20892 -2.03217e-016 0 -3.88251e-019 -16.4202 -43.3187 -17.5581 -4.14885 78.605 4.94508 -2.63406 -5.24636 -9.48136 2.03217e-016 0 3.88251e-019 -1.79538 -3.28715 6.58842 0.14963 42.2478 -1.47472 2.64945 9.70424 -12.298 
